<?xml version="1.0" encoding="UTF-8"?>
<svg id="Layer_3" data-name="Layer 3" xmlns="http://www.w3.org/2000/svg" viewBox="0 0 1387.06 1505.7">
  <defs>
    <style>
      .cls-1 {
        fill: #f47532;
      }
    </style>
  </defs>
  <path class="cls-1" d="M881.45,441.93c2.64,2.02,11.98,12,14.72,11.47,14.41-14.79,31.67-27.01,51.44-33.55,93.17-30.85,182.38,50.04,160.53,145.53-10.41,45.48-45.91,79.53-90.4,91.83,1.73,11.38,4.37,22.57,5.93,33.99,27.89,204.37-108.07,393.79-309.65,433.06-40.16,7.83-86.22.69-123.72,13.28-68.1,22.85-110.09,55.28-166.38,97.62-87.08,65.51-170.48,135.84-257.21,201.79-25.37,19.29-82.18,66.63-112.36,68.64-22.14,1.48-24.98-12.56-23.53-31.52,1.31-17.19,21.05-53.62,29.13-70.87,50.66-108.13,104.88-214.9,158.34-321.66,10-19.96,22.23-39.27,29.54-60.46,17.03-49.4,23.25-134.92,18.97-187-1.9-23.08-8.96-46.33-10.03-70.97-1.96-45.12,8.63-88.33,6.08-133.08-3.89-68.28-31.2-123.83-60.18-183.82-43.17-89.34-91.44-176.19-136.38-264.62C46.67,142.96,20.87,97.44,6.8,57.07-1.01,34.65-9.69-6.35,28.04.83c13.57,2.58,21.46,8.1,32.49,15.5,55.01,36.9,110.02,80.82,163.17,120.83,31.74,23.89,63.39,47.94,95,72,34.52,26.27,69.09,55.86,104.21,80.79,43.33,30.75,89.96,39.99,139.9,54.1,15.33,4.33,29.97,10.98,45.98,14.02s34.51.71,51.55,1.45c80.45,3.49,157.74,33.92,221.1,82.42ZM990.69,660.68c-.83-.57-13.94-.82-16.37-1.13-79.6-10.28-128.03-86.22-103.22-163.2,1.16-3.6,7.35-15.89,6.61-18.12-121.83-104.33-302.76-109.87-432.23-15.5-210.58,153.49-182.34,481.9,52.12,595.54,253.41,122.83,538.35-84.91,500.05-363.05-.57-4.14-5.51-33.55-6.96-34.54Z"/>
  <path class="cls-1" d="M1280.62,81.86c79.1-6.1,132.35,79.19,93.37,148.37-34.99,62.09-126.6,66.55-166.99,7.64-43.67-63.69-3.35-150.09,73.61-156.02Z"/>
  <path class="cls-1" d="M1163.61,323.85c64.63-6.04,72.11,92.09,9.69,97.69-65.96,5.92-73.82-91.7-9.69-97.69Z"/>
</svg>